<svg width="564" height="514" viewBox="0 0 564 514" fill="none" xmlns="http://www.w3.org/2000/svg">
<path d="M419.376 137.428C419.377 110.248 411.318 83.678 396.218 61.0781C381.119 38.4783 359.657 20.8637 334.546 10.4619C309.435 0.0599816 281.803 -2.66199 255.145 2.6403C228.487 7.9426 204 21.0309 184.781 40.2501C165.562 59.4694 152.474 83.9562 147.172 110.614C141.869 137.272 144.591 164.904 154.993 190.014C165.395 215.125 183.009 236.588 205.609 251.687C228.209 266.787 254.779 274.846 281.959 274.845C318.389 274.796 353.313 260.303 379.074 234.542C404.834 208.782 419.327 173.858 419.376 137.428V137.428ZM281.959 246.122C260.462 246.122 239.447 239.747 221.572 227.804C203.698 215.86 189.766 198.885 181.539 179.023C173.312 159.162 171.16 137.308 175.354 116.223C179.548 95.1384 189.9 75.7709 205.101 60.5698C220.302 45.3687 239.669 35.0166 260.754 30.8226C281.839 26.6287 303.693 28.7812 323.555 37.008C343.416 45.2348 360.391 59.1663 372.335 77.041C384.278 94.9156 390.653 115.93 390.653 137.428C390.621 166.245 379.159 193.873 358.782 214.25C338.405 234.627 310.777 246.089 281.959 246.122Z" fill="white"/>
<path d="M210.446 333.549V303.198H181.723V333.549C181.786 338.903 180.786 344.217 178.781 349.182C176.775 354.147 173.805 358.664 170.041 362.472C166.277 366.281 161.795 369.305 156.854 371.368C151.913 373.432 146.611 374.494 141.257 374.494C135.902 374.494 130.601 373.432 125.66 371.368C120.719 369.305 116.237 366.281 112.473 362.472C108.709 358.664 105.738 354.147 103.733 349.182C101.728 344.217 100.727 338.903 100.79 333.549V290.367C100.79 277.001 95.4808 264.183 86.0299 254.732C76.579 245.281 63.7608 239.972 50.3952 239.972C37.0296 239.972 24.2113 245.281 14.7604 254.732C5.30949 264.183 0 277.001 0 290.367V304.569H28.7286V290.367C28.8199 284.681 31.1428 279.259 35.1961 275.27C39.2495 271.281 44.7084 269.046 50.3952 269.046C56.082 269.046 61.5408 271.281 65.5942 275.27C69.6475 279.259 71.9705 284.681 72.0619 290.367V333.549C72.0619 351.9 79.3517 369.499 92.3278 382.475C105.304 395.451 122.903 402.741 141.254 402.741C159.605 402.741 177.204 395.451 190.18 382.475C203.156 369.499 210.446 351.9 210.446 333.549V333.549Z" fill="white"/>
<path d="M238.962 443.602C238.962 454.654 234.572 465.254 226.757 473.069C218.942 480.884 208.342 485.274 197.29 485.274C186.238 485.274 175.639 480.884 167.824 473.069C160.009 465.254 155.618 454.654 155.618 443.602V430.933H126.89V443.602C126.89 462.273 134.307 480.179 147.509 493.381C160.711 506.583 178.617 514 197.287 514C215.958 514 233.864 506.583 247.066 493.381C260.268 480.179 267.685 462.273 267.685 443.602V303.204H238.962V443.602Z" fill="white"/>
<path d="M513.522 239.975C500.161 239.989 487.352 245.303 477.904 254.75C468.455 264.197 463.14 277.006 463.124 290.367V333.549C463.124 344.281 458.861 354.573 451.272 362.161C443.684 369.75 433.392 374.013 422.66 374.013C411.929 374.013 401.636 369.75 394.048 362.161C386.46 354.573 382.197 344.281 382.197 333.549V303.198H353.468V333.549C353.468 351.9 360.758 369.499 373.734 382.475C386.71 395.451 404.309 402.741 422.66 402.741C441.011 402.741 458.61 395.451 471.587 382.475C484.563 369.499 491.853 351.9 491.853 333.549V290.367C491.944 284.681 494.267 279.259 498.32 275.27C502.373 271.281 507.832 269.046 513.519 269.046C519.206 269.046 524.665 271.281 528.718 275.27C532.771 279.259 535.094 284.681 535.186 290.367V304.569H563.914V290.367C563.898 277.007 558.584 264.199 549.137 254.752C539.69 245.305 526.882 239.991 513.522 239.975V239.975Z" fill="white"/>
<path d="M408.291 443.602C408.291 454.654 403.901 465.254 396.086 473.069C388.271 480.884 377.671 485.274 366.619 485.274C355.567 485.274 344.968 480.884 337.153 473.069C329.338 465.254 324.947 454.654 324.947 443.602V303.204H296.219V443.602C296.219 462.273 303.636 480.179 316.838 493.381C330.04 506.583 347.946 514 366.616 514C385.287 514 403.193 506.583 416.395 493.381C429.597 480.179 437.014 462.273 437.014 443.602V430.933H408.285L408.291 443.602Z" fill="white"/>
</svg>
